<svg width="123" height="74" viewBox="0 0 123 74" fill="none" xmlns="http://www.w3.org/2000/svg">
<path fill-rule="evenodd" clip-rule="evenodd" d="M37.0846 38.7239L37.5056 37.3004L37.3832 37.2644L37.2477 37.2242L37.1123 37.1837L36.9769 37.1428L36.8416 37.1016L36.7064 37.06L36.5714 37.0182L36.4363 36.9759L36.3014 36.9333L36.1666 36.8905L36.0318 36.8473L35.897 36.8038L35.7624 36.7599L35.6279 36.7157L35.4934 36.6712L35.359 36.6264L35.2246 36.5813L35.0904 36.5359L34.9562 36.49L34.8221 36.4439L34.688 36.3975L34.554 36.3508L34.4202 36.3038L34.2863 36.2565L34.1524 36.2088L34.0187 36.1608L33.885 36.1126L33.7513 36.064L33.6177 36.0151L33.4842 35.9659L33.3507 35.9164L33.3288 35.9082L32.8077 37.2982L32.8326 37.3075L32.969 37.3581L33.1055 37.4084L33.242 37.4583L33.3786 37.508L33.5154 37.5573L33.6521 37.6064L33.7891 37.6551L33.926 37.7036L34.0631 37.7517L34.2002 37.7995L34.3374 37.847L34.4747 37.8942L34.6121 37.941L34.7495 37.9875L34.8871 38.0338L35.0248 38.0797L35.1625 38.1252L35.3003 38.1705L35.4382 38.2154L35.5763 38.2601L35.7144 38.3043L35.8526 38.3482L35.991 38.3919L36.1294 38.4352L36.2679 38.478L36.4065 38.5207L36.5453 38.5629L36.6842 38.6049L36.8231 38.6465L36.9622 38.6877L37.0846 38.7237V38.7239ZM41.55 36.0432C47.2024 37.2824 53.2222 37.5459 60.0862 36.3747C63.3094 35.8247 66.4547 35.0311 69.5496 34.2501C76.7873 32.4239 83.7679 30.6625 91.5741 31.7786C89.0897 17.144 76.3405 6 60.9861 6C45.4527 6 32.5855 17.4055 30.3154 32.292C34.0055 33.9014 37.7039 35.1999 41.55 36.0432ZM76.8351 23.3045L77.5179 22.7059L78.1113 23.3816L77.4285 23.9802L76.8352 23.3045H76.8351ZM79.3977 23.7942C79.1795 23.4585 78.6188 22.7894 78.5581 22.4172C78.5217 22.186 78.546 21.9711 78.6334 21.7707C78.2542 21.8813 77.9209 21.8263 77.6325 21.6054C77.4773 21.4865 76.9136 20.8817 76.8318 20.7194C76.7926 20.6416 76.7609 20.5577 76.7375 20.4675C76.6788 20.2409 76.6829 20.0246 76.7507 19.8167C76.2928 19.9993 75.8815 19.9181 75.5147 19.5731L74.7675 19.0432C74.6274 19.29 74.4684 19.478 74.2883 19.6045C73.8173 19.9351 73.2014 20.0542 72.4453 19.9647C71.8025 19.8885 71.1963 19.6882 70.6277 19.366C69.2892 18.6074 69.0251 17.5162 69.8338 16.0915C70.0177 15.7677 70.311 15.4339 70.7124 15.0894L71.345 15.7707C71.0931 16.0109 70.8922 16.2616 70.7435 16.5235C70.2759 17.3472 70.4622 17.9979 71.3043 18.4751C72.2198 18.994 72.9614 19.1501 73.5302 18.944C73.5787 18.9264 73.6147 18.8982 73.637 18.859C73.6664 18.8072 73.6549 18.7524 73.6039 18.6931C73.4362 18.498 73.1339 17.9562 72.4 17.2794L73.0902 16.6003L74.8285 17.7C75.0174 17.8195 76.1101 18.6043 76.283 18.6699C76.5034 18.7535 76.7289 18.6726 76.96 18.4273L77.7312 17.6085L78.4627 18.2964L78.0666 18.7169C77.6114 19.2001 77.4796 19.6203 77.6709 19.9779C77.7472 20.1206 78.1396 20.5182 78.2814 20.5866C78.4917 20.688 78.7226 20.6283 78.9743 20.4076L79.8213 19.6651L80.4838 20.4196L80.0494 20.8005C79.5377 21.2491 79.3698 21.6647 79.5464 22.0468C79.6225 22.2116 80.2454 23.0151 80.3486 23.1739C80.5428 23.4728 80.7238 23.567 80.8923 23.4577C80.9705 23.407 81.0512 23.3095 81.1352 23.1665L81.9945 21.6949C82.1178 21.4814 82.2493 21.3285 82.3934 21.235C82.6693 21.0559 82.9647 21.1018 83.2764 21.3731L85.4542 23.2763L85.0202 24.04L83.1484 22.3165C83.033 22.211 82.9368 22.1832 82.8599 22.2332C82.8147 22.2625 82.7749 22.3161 82.738 22.3955L81.938 23.8355C81.8187 24.0552 81.6436 24.2398 81.4116 24.3903C81.0429 24.6296 80.6679 24.6803 80.2868 24.5426C79.9382 24.4202 79.6419 24.1701 79.3978 23.7943L79.3977 23.7942ZM85.5736 23.0407L83.3644 21.1026L83.6686 20.5826L85.8977 22.546L85.5736 23.0407ZM43.7062 19.6975C44.1709 20.0577 44.5005 20.5303 44.6925 21.1136C44.9694 21.9578 44.8001 22.7764 44.1826 23.5717C43.7454 24.1349 43.2068 24.4538 42.5655 24.5275C41.9234 24.6023 41.3192 24.4194 40.7532 23.9809C40.5956 23.8587 40.3575 23.6005 40.0401 23.2072L40.7621 22.6403C40.9165 22.8188 41.1012 22.9914 41.3175 23.159C41.6465 23.414 42.0044 23.5036 42.3903 23.429C42.7569 23.3578 43.0685 23.1557 43.3264 22.8235C43.6378 22.4224 43.771 22.0064 43.7247 21.5748C43.6796 21.144 43.4552 20.7732 43.0549 20.4629C42.8076 20.2712 42.3639 20.1023 41.7248 19.9549L41.8094 18.9179C42.4397 18.9461 43.0724 19.2063 43.7062 19.6975ZM41.3363 20.8873L40.7207 21.6803L39.9269 21.0652L40.5426 20.2722L41.3363 20.8873V20.8873ZM46.0714 19.4076L45.3162 20.0695L41.8425 16.1136L42.5976 15.4517L46.0713 19.4076H46.0714ZM49.009 16.6824C49.0425 16.7768 49.066 16.9784 49.0804 17.2864C49.1096 17.9109 48.6842 19.0698 47.8053 20.7622L46.8796 20.2701C47.0997 19.8637 47.2942 19.4738 47.4646 19.1031C47.8558 18.2387 48.0436 17.6036 48.0304 17.1959C48.026 17.053 47.9765 16.91 47.8837 16.7673C47.8075 16.6502 47.7154 16.559 47.6083 16.4932C47.4251 16.3555 47.0759 16.1467 46.5645 15.8646L47.034 14.9043L48.1347 15.5429C48.3913 15.6921 48.5853 15.7795 48.7186 15.8058C48.8724 15.8378 49.032 15.8308 49.1974 15.7845C49.3387 15.7449 50.3396 15.2137 50.52 15.1312C50.7397 15.0305 50.8113 14.897 50.7356 14.7317C50.7058 14.6669 50.6545 14.6072 50.5788 14.5506L49.7665 13.9561L50.3419 13.0318C51.1122 13.5592 51.5713 13.9841 51.7193 14.3067C52.1062 15.1504 51.9318 15.7407 51.1986 16.0764C50.5317 16.3818 49.7587 16.9484 49.0089 16.6822L49.009 16.6824ZM53.0915 17.2205L52.2736 17.595L51.8951 16.7698L52.7131 16.3953L53.0915 17.2205ZM51.9878 17.7258L51.1699 18.1003L50.7915 17.2752L51.6094 16.9006L51.9878 17.7258L51.9878 17.7258ZM54.0245 15.1476L53.0744 15.4736L51.3636 10.4962L52.3137 10.1703L54.0245 15.1476ZM58.6735 14.2524L57.7987 14.3666C57.3526 14.4249 56.9918 14.2711 56.7152 13.9067C56.4934 13.6144 56.35 13.2254 56.2866 12.7408L55.8383 9.31528L56.8344 9.18508L57.2366 12.2587C57.2806 12.5947 57.3478 12.828 57.4399 12.9597C57.5719 13.1494 57.7886 13.2237 58.0903 13.1843L58.3775 13.1468L58.6997 13.0752C58.8987 13.0309 59.046 12.9207 59.1714 12.7263C59.2409 12.6186 59.3413 12.4128 59.5049 12.1254C59.8303 11.5592 60.2062 11.2807 60.6355 11.2901C61.0853 11.2999 61.5003 11.4996 61.8806 11.8904C62.2253 12.2457 62.4097 12.5989 62.4342 12.9471C62.5089 12.9916 62.5997 13.0263 62.7066 13.0513C62.7547 13.0625 63.6416 13.1804 63.714 13.1651C63.9479 13.116 64.0937 12.924 64.1522 12.5891L64.3459 11.48L65.3355 11.6525L65.2361 12.2214C65.1233 12.8676 65.2403 13.2895 65.5874 13.4865C65.6885 13.5438 66.6466 13.7822 66.7139 13.801C66.9467 13.8659 67.0878 13.8101 67.1367 13.6349C67.1558 13.5663 67.1552 13.4876 67.134 13.3956L66.8979 12.4176L67.9345 12.0829C68.1821 12.9825 68.2581 13.6033 68.1625 13.9452C67.9129 14.839 67.3982 15.1773 66.6214 14.9607C66.3449 14.8836 65.6608 14.7423 65.3966 14.62C65.2884 14.5699 65.1858 14.5019 65.0897 14.4151C64.9159 14.2582 64.8003 14.0753 64.7425 13.8644C64.4606 14.2686 64.0724 14.4269 63.5762 14.3404C63.093 14.2562 62.4733 14.211 62.1208 13.8366C61.8803 14.1805 61.5447 14.3479 61.1153 14.3385C60.7805 14.3312 60.4795 14.2461 60.2122 14.0831L59.6317 13.7271C59.3591 14.0078 59.1079 14.141 58.6736 14.2523L58.6735 14.2524ZM65.1908 16.3405L64.3045 16.1861L64.4607 15.2919L65.347 15.4464L65.1909 16.3405H65.1908ZM63.9947 16.1321L63.1084 15.9776L63.2646 15.0834L64.1509 15.2379L63.9948 16.1321H63.9947ZM66.5597 17.5894L65.6762 17.343L65.9204 16.4688L66.8039 16.7151L66.5597 17.5894ZM67.3953 16.7079L66.5288 16.4663L66.7753 15.5836L67.6418 15.8253L67.3953 16.7079H67.3953ZM66.3184 16.4076L65.4602 16.1683L65.7068 15.2857L66.565 15.525L66.3184 16.4076ZM79.4141 18.2543L78.7589 17.6382L79.3815 16.9772L80.0367 17.5933L79.4141 18.2543ZM78.5299 17.4228L77.8748 16.8067L78.4974 16.1458L79.1525 16.7619L78.5299 17.4228ZM76.6278 23.0684L76.0344 22.3927L76.7172 21.794L77.3105 22.4697L76.6277 23.0684H76.6278ZM60.1124 12.8443C60.5045 13.1598 60.8258 13.3196 61.0791 13.3251C61.3076 13.33 61.4233 13.2336 61.4276 13.0359C61.4303 12.9108 61.4078 12.8099 61.3614 12.7347C61.3291 12.6787 61.255 12.6029 61.1406 12.5058C60.9505 12.3446 60.7892 12.2625 60.6582 12.2597C60.568 12.2577 60.4644 12.3355 60.3503 12.4931C60.2976 12.572 60.2179 12.6895 60.1125 12.8443H60.1124ZM61.0844 42.2193C53.3978 43.5309 46.6455 43.2334 40.2966 41.8415C36.756 41.0653 33.3566 39.9513 30 38.5888C30.8278 54.9713 44.3842 68 60.9862 68C77.8243 68 91.5296 54.5981 92 37.8879C84.6788 36.5478 77.9663 38.2415 70.9889 40.002C67.7876 40.8098 64.5342 41.6307 61.0845 42.2193H61.0844ZM42.0586 50.2765C42.1125 50.566 42.0991 50.8287 42.0175 51.0637C41.9357 51.3003 41.7828 51.5367 41.5604 51.7735L41.1318 51.3841C41.2942 51.1971 41.4055 51.0231 41.4658 50.8622C41.5246 50.701 41.537 50.5176 41.5019 50.3104C41.4673 50.104 41.387 49.9008 41.2602 49.7015C41.1087 49.4636 40.941 49.2813 40.7573 49.1529C40.5741 49.0255 40.3897 48.9467 40.2017 48.9152C40.0153 48.884 39.8322 48.8843 39.6532 48.9155C39.3441 48.9714 39.0472 49.0891 38.7613 49.2708C38.4083 49.4951 38.1518 49.7432 37.9904 50.0149C37.8304 50.2869 37.7662 50.5753 37.798 50.8789C37.8305 51.1833 37.9287 51.4653 38.0942 51.7253C38.238 51.9512 38.4224 52.1436 38.6466 52.303C38.8716 52.4619 39.068 52.5654 39.239 52.6128L39.9789 52.1426L39.2421 50.9854L39.7054 50.691L40.7684 52.3606L39.305 53.2907C38.9378 53.1642 38.615 52.9978 38.3384 52.7905C38.0618 52.5831 37.8319 52.3357 37.6495 52.0492C37.4028 51.6616 37.2616 51.2572 37.2262 50.8346C37.1905 50.4135 37.2787 50.0208 37.4898 49.6608C37.7013 49.2994 38.001 48.9954 38.388 48.7495C38.7722 48.5053 39.1816 48.3574 39.6176 48.306C40.0527 48.2553 40.4467 48.3286 40.7993 48.5276C41.1529 48.726 41.4548 49.0218 41.705 49.4149C41.8863 49.6996 42.0046 49.9869 42.0586 50.2765H42.0586ZM43.7558 52.3403L46.3192 54.8825V54.882L46.9213 55.3207L46.8343 57.0085C46.8187 57.3218 46.7934 57.628 46.7566 57.9259C47.0164 57.812 47.3181 57.6924 47.6606 57.5648L49.2056 56.9849L49.7892 57.4101L46.6895 58.4873L45.5214 60.088L45.0196 59.7224L46.1878 58.1217L46.3136 55.0221L45.9996 55.3383L44.9047 54.2524L41.9945 57.1819L41.5538 56.7448L44.464 53.8153L43.3691 52.7296L43.7559 52.3402L43.7558 52.3403ZM43.5249 51.9803L39.928 54.972L39.5308 54.4952L43.1277 51.5034L43.5249 51.9803ZM84.3649 52.0352L80.4064 49.7719L80.7224 49.2202L85.1303 48.9137L81.9419 47.0908L82.2374 46.5749L86.2102 48.8464L86.2995 48.8974L85.9835 49.4492L85.8722 49.4569L81.5755 49.7557L84.6767 51.5288L84.7639 51.5786L84.4685 52.0945L84.365 52.0353L84.3649 52.0352ZM81.4694 56.019L78.8782 51.9023L79.2864 51.3578L84.0084 52.5951L84.1743 52.6385L83.7516 53.2021L83.6299 53.1673L82.2919 52.7851L81.1101 54.3609L81.881 55.5264L81.9408 55.6167L81.5468 56.1419L81.4694 56.019ZM78.1301 59.2973L75.0107 55.9762L76.5231 54.558C76.8274 54.2727 77.0877 54.0869 77.3031 53.9997C77.5185 53.9126 77.7463 53.9022 77.9862 53.9683C78.2261 54.0344 78.434 54.1619 78.6099 54.3492C78.8374 54.5913 78.9503 54.869 78.9496 55.1817C78.9489 55.4943 78.8059 55.8255 78.5211 56.1777C78.6947 56.1223 78.8389 56.0946 78.9531 56.0921C79.1982 56.0891 79.4654 56.1237 79.7529 56.196L81.0282 56.5231L81.2154 56.5711L80.6514 57.1L80.5263 57.0679L79.5337 56.8135C79.2096 56.7308 78.9538 56.6765 78.7667 56.6475C78.5788 56.6192 78.4317 56.6153 78.3232 56.635C78.2162 56.6547 78.1187 56.6893 78.0324 56.7374C77.9719 56.7748 77.8833 56.8474 77.7665 56.957L77.2438 57.4471L78.607 58.8984L78.6663 58.9615L78.2135 59.3861L78.1303 59.2974L78.1301 59.2973ZM76.6598 60.4057L73.9612 56.6514L74.4656 56.2895L77.1648 60.0447L77.1957 60.0875L76.6913 60.4495L76.6598 60.4057V60.4057ZM69.2495 63.8536L69.4648 58.914L70.1106 58.6982L73.2652 62.3697L73.4021 62.529L72.7337 62.7524L72.6496 62.6501L71.7702 61.58L69.9013 62.2045L69.8705 63.6741L69.8697 63.7096L69.2468 63.9178L69.2496 63.8537L69.2495 63.8536ZM64.2428 64.7512L63.4731 60.2393L64.3881 60.0835L66.0358 63.1606C66.1886 63.4471 66.3005 63.6622 66.3725 63.8055C66.3965 63.6292 66.4371 63.3683 66.4933 63.0242L67.0568 59.6289L67.874 59.4897L68.6456 64.0124L68.6605 64.0993L68.0741 64.1993L68.0658 64.1509L67.4162 60.3429L66.7288 64.4203L66.7274 64.4286L66.1776 64.5223L66.1725 64.5129L64.176 60.8218L64.836 64.6911L64.8459 64.749L64.2596 64.8489L64.2428 64.7512L64.2428 64.7512ZM61.2206 64.8904L60.769 64.8784L60.8217 62.8981L59.09 60.1561L59.8349 60.1758L60.7218 61.6149C60.8869 61.8817 61.04 62.1482 61.1789 62.4143C61.3281 62.1732 61.5086 61.9037 61.7182 61.6043L62.6609 60.2509L63.3829 60.27L61.4424 62.9146L61.3899 64.8896L61.3897 64.8949L61.2206 64.8904ZM55.0166 64.2567L55.6369 59.6812L58.9856 60.1343L58.912 60.6779L56.1786 60.3081L55.9856 61.7319L58.5442 62.0781L58.4704 62.6217L55.9119 62.2755L55.6979 63.8547L58.5414 64.2394L58.4688 64.7752L58.4678 64.7831L58.2883 64.7588C57.4995 64.6844 56.7346 64.5799 55.9932 64.4482L55.0089 64.315L55.0169 64.2567H55.0166ZM52.0599 58.527L53.7503 59.0414C54.0473 59.1317 54.27 59.2155 54.4189 59.2915C54.6276 59.3948 54.7908 59.5207 54.9088 59.6681C55.0264 59.8165 55.1024 59.9967 55.1369 60.2086C55.1714 60.4205 55.1543 60.6372 55.0867 60.859C54.9712 61.238 54.7522 61.523 54.4294 61.7116C54.1073 61.9014 53.6286 61.8991 52.995 61.7063L51.8466 61.3568L51.2942 63.1687L51.2904 63.1811L50.6965 63.0003L50.7136 62.944L52.06 58.527H52.0599ZM52.494 59.2325L52.0065 60.832L53.1632 61.184C53.5467 61.3007 53.8393 61.3123 54.0443 61.2188C54.2483 61.125 54.3895 60.9495 54.4685 60.6903C54.5253 60.5039 54.5273 60.3293 54.4731 60.1671C54.4189 60.005 54.3208 59.8784 54.1796 59.7888C54.0874 59.7323 53.9071 59.6627 53.6392 59.5812L52.4939 59.2327L52.494 59.2325ZM69.9143 61.6699L71.4268 61.1644L70.5524 60.0896C70.2878 59.7626 70.0791 59.4891 69.9242 59.27C69.96 59.5794 69.9734 59.8905 69.9651 60.2055L69.9142 61.6699H69.9143ZM75.8169 55.9277L76.877 57.0563L77.8461 56.1475C78.0526 55.9538 78.193 55.782 78.2687 55.6304C78.3452 55.4795 78.3693 55.3286 78.3402 55.1783C78.3126 55.028 78.2473 54.8981 78.1437 54.7878C77.9924 54.6267 77.8092 54.5477 77.5947 54.5532C77.3803 54.5588 77.1474 54.68 76.8957 54.9161L75.8169 55.9277L75.8169 55.9277ZM80.8164 53.9137L81.7728 52.6385L80.4419 52.2513C80.0381 52.1326 79.7108 52.0263 79.4586 51.9341C79.6642 52.1683 79.8523 52.4166 80.0247 52.6804L80.8164 53.9137ZM85.0178 35.1951L85.1649 35.1888L85.312 35.1833L85.4593 35.1782L85.6066 35.1738L85.7541 35.1699L85.9017 35.1667L86.0494 35.1642L86.1971 35.1622L86.3451 35.1609L86.4931 35.1602L86.6413 35.1601L86.7895 35.1607L86.9379 35.162L87.0864 35.1638L87.2351 35.1663L87.3839 35.1695L87.5327 35.1734L87.6818 35.1779L87.831 35.1832L87.9804 35.1891L88.1298 35.1957L88.2794 35.203L88.4292 35.211L88.4889 35.2144L88.5717 33.7324L88.512 33.7289L88.3553 33.7206L88.1989 33.713L88.0426 33.7061L87.8865 33.6998L87.7306 33.6943L87.5748 33.6896L87.4193 33.6856L87.2639 33.6822L87.1087 33.6796L86.9536 33.6776L86.7987 33.6763L86.644 33.6758L86.4894 33.6758L86.335 33.6766L86.1808 33.6779L86.0267 33.68L85.8728 33.6827L85.719 33.6861L85.5654 33.6901L85.412 33.6947L85.2586 33.6999L85.1055 33.7058L84.9525 33.7122L84.7996 33.7193L84.647 33.7269L84.4944 33.7352L84.342 33.744L84.1898 33.7534L84.0376 33.7634L84.0238 33.7643L84.1296 35.2449L84.1378 35.2443L84.2843 35.2347L84.4309 35.2257L84.5776 35.2171L84.7244 35.2092L84.8712 35.2018L85.0182 35.1951H85.0178ZM78.3289 36.0208L78.0512 34.5626L78.0453 34.5637L77.8973 34.592L77.7494 34.6206L77.6014 34.6496L77.4536 34.6788L77.3058 34.7084L77.1581 34.7382L77.0104 34.7684L76.8628 34.7988L76.7152 34.8295L76.5677 34.8606L76.4202 34.8918L76.2727 34.9234L76.1253 34.9551L75.9779 34.9871L75.8305 35.0194L75.6833 35.0519L75.5359 35.0846L75.3886 35.1176L75.2414 35.1508L75.0942 35.1841L74.947 35.2178L74.7999 35.2516L74.6528 35.2856L74.5056 35.3197L74.3585 35.3541L74.2114 35.3886L74.0643 35.4234L73.9172 35.4584L73.7701 35.4933L73.6626 35.5191L74.0095 36.9625L74.1157 36.937L74.2613 36.9023L74.4069 36.8678L74.5524 36.8334L74.6978 36.7992L74.8431 36.7652L74.9885 36.7314L75.1338 36.6978L75.2791 36.6644L75.4243 36.6312L75.5694 36.5983L75.7146 36.5656L75.8597 36.5331L76.0047 36.5009L76.1498 36.4689L76.2948 36.4372L76.4398 36.4057L76.5848 36.3744L76.7296 36.3434L76.8746 36.3127L77.0195 36.2823L77.1644 36.2521L77.3092 36.2223L77.4541 36.1928L77.599 36.1635L77.7438 36.1346L77.8886 36.1059L78.0334 36.0775L78.1782 36.0495L78.3231 36.0218L78.329 36.0207L78.3289 36.0208ZM68.2489 38.3978L67.8916 36.957L67.8691 36.9626L67.7205 36.9994L67.5719 37.036L67.4232 37.0726L67.2744 37.109L67.1255 37.1455L66.9765 37.1818L66.8274 37.218L66.6783 37.254L66.5291 37.29L66.3797 37.3258L66.2303 37.3615L66.0808 37.397L65.9311 37.4325L65.7814 37.4677L65.6316 37.5028L65.4816 37.5377L65.3315 37.5725L65.1814 37.6072L65.0311 37.6416L64.8807 37.6759L64.7301 37.7099L64.5796 37.7438L64.4288 37.7775L64.278 37.8109L64.127 37.8442L63.9759 37.8772L63.8246 37.91L63.6733 37.9426L63.5756 37.9635L63.8851 39.4153L63.9852 39.3939L64.1389 39.3607L64.2925 39.3274L64.4458 39.2939L64.599 39.2602L64.752 39.2262L64.9049 39.1921L65.0575 39.1577L65.2101 39.1232L65.3624 39.0885L65.5145 39.0536L65.6665 39.0186L65.8182 38.9834L65.97 38.948L66.1214 38.9125L66.2728 38.8769L66.424 38.8412L66.575 38.8052L66.7258 38.7692L66.8766 38.7331L67.0271 38.6968L67.1775 38.6605L67.3278 38.6239L67.478 38.5874L67.6279 38.5508L67.7778 38.514L67.9275 38.4772L68.0771 38.4403L68.2265 38.4034L68.249 38.3978H68.2489ZM57.9642 40.4316L57.787 38.9579L57.6439 38.9752L57.4811 38.9945L57.3186 39.0133L57.1564 39.0315L56.9944 39.0492L56.8328 39.0665L56.6715 39.0831L56.5105 39.0993L56.3497 39.115L56.1893 39.1301L56.0291 39.1447L55.8693 39.1589L55.7098 39.1724L55.5505 39.1855L55.3915 39.1981L55.2327 39.2101L55.0743 39.2217L54.9162 39.2327L54.7583 39.2433L54.6007 39.2533L54.4433 39.2629L54.2863 39.2719L54.1295 39.2805L53.973 39.2885L53.8168 39.2961L53.6607 39.3032L53.5051 39.3097L53.4068 39.3135L53.4626 40.7969L53.5654 40.7928L53.7257 40.7861L53.8862 40.7788L54.0471 40.7711L54.2081 40.7627L54.3694 40.754L54.531 40.7447L54.6929 40.7348L54.855 40.7245L55.0174 40.7136L55.1801 40.7023L55.343 40.6904L55.5063 40.678L55.6698 40.665L55.8336 40.6516L55.9977 40.6376L56.162 40.6231L56.3267 40.6081L56.4915 40.5926L56.6567 40.5765L56.8222 40.5598L56.9879 40.5427L57.154 40.525L57.3203 40.5069L57.487 40.4881L57.6539 40.4688L57.8212 40.449L57.9642 40.4317L57.9642 40.4316ZM47.4354 40.6709L47.5588 39.1917L47.4787 39.1852L47.3326 39.1727L47.1867 39.16L47.0411 39.1467L46.8956 39.133L46.7503 39.1189L46.6052 39.1043L46.4603 39.0893L46.3156 39.074L46.1711 39.0582L46.0268 39.0419L45.8827 39.0252L45.7387 39.0081L45.595 38.9906L45.4514 38.9726L45.308 38.9543L45.1648 38.9355L45.0218 38.9164L44.8789 38.8969L44.7362 38.8768L44.5936 38.8565L44.4513 38.8357L44.3091 38.8144L44.1671 38.7928L44.0252 38.7708L43.8836 38.7484L43.7421 38.7256L43.6007 38.7024L43.4595 38.6788L43.3185 38.6548L43.2058 38.6352L42.9497 40.0973L43.0667 40.1176L43.212 40.1423L43.3575 40.1667L43.5031 40.1906L43.6489 40.2142L43.7949 40.2373L43.9411 40.26L44.0874 40.2822L44.234 40.3041L44.3806 40.3255L44.5275 40.3466L44.6747 40.3672L44.8219 40.3873L44.9694 40.4071L45.1171 40.4265L45.2649 40.4454L45.4129 40.4639L45.5611 40.4819L45.7094 40.4996L45.858 40.5167L46.0069 40.5335L46.1559 40.5498L46.3051 40.5657L46.4545 40.5811L46.604 40.5961L46.7538 40.6107L46.9038 40.6248L47.0541 40.6384L47.2045 40.6516L47.3551 40.6645L47.4352 40.671L47.4354 40.6709Z" fill="#001C72"/>
</svg>
