<svg width="123" height="74" viewBox="0 0 123 74" fill="none" xmlns="http://www.w3.org/2000/svg">
<path fill-rule="evenodd" clip-rule="evenodd" d="M87.7725 22.1545C81.4296 17.7221 72.8416 14.8789 63.3363 14.5528V7.81753V6H61.5C51.2671 6 41.9765 8.91696 35.2275 13.6331C28.2906 18.4807 24 25.2324 24 32.7393C24 40.2462 28.2906 46.998 35.2275 51.8455C41.572 56.279 50.1628 59.1225 59.6709 59.4474V66.1825V68H61.5C71.7329 68 81.0236 65.083 87.7725 60.3669C94.7094 55.5193 99 48.7676 99 41.2607C99 33.7538 94.7094 27.002 87.7725 22.1545ZM48.144 54.7777C49.117 53.8443 49.9241 52.0555 49.3787 50.819C48.8323 49.5805 50.3109 48.7806 49.2047 47.515C49.3537 47.4705 49.5033 47.4268 49.6535 47.3839C53.1651 46.3811 57.0277 45.8117 61.093 45.7761C61.1087 46.6811 60.9817 47.8654 61.3856 49.5329C61.678 50.7404 61.6474 49.9779 61.6474 51.5259C61.6474 53.5108 62.3954 53.056 62.6177 54.9142C62.8498 56.8533 65.8217 53.0806 66.2224 53.134C66.6129 53.186 67.6676 50.9348 67.6676 49.9178C67.6676 48.0611 69.2047 47.6606 69.785 46.541C71.0064 46.773 72.1954 47.0551 73.3465 47.3838C76.6703 48.3329 79.6871 49.6718 82.2693 51.3147C76.8721 54.7471 69.5617 56.8532 61.5001 56.8532C56.6999 56.8532 52.1663 56.1064 48.1441 54.7777H48.144ZM47.591 46.336C47.3656 46.2119 47.118 46.0836 46.8434 45.9503C46.0088 45.545 45.6925 42.9213 43.4519 41.8754C42.1284 41.2576 41.0519 37.9523 39.8397 37.8543C38.9231 37.7801 38.6609 38.0631 38.2562 37.8077H52.793C52.8823 38.6145 53.2831 39.4607 54.3782 40.5523C55.2605 41.4316 54.0529 41.9922 57.1415 42.7377C59.0758 43.2046 60.0682 43.6355 60.5751 44.1676C56.5588 44.2461 52.7232 44.8334 49.2072 45.8375C48.6603 45.9936 48.1215 46.1599 47.591 46.3358V46.336ZM36.9404 36.1922C35.9713 34.6855 37.5517 35.4287 37.5063 34.0774C37.4898 33.5853 35.1439 32.407 37.8223 31.037C38.3721 30.7559 37.7058 29.7522 39.6434 28.7702C40.852 28.1575 40.8223 25.3834 40.0562 24.1715C42.7185 25.8342 45.8099 27.1921 49.2072 28.1623C50.9203 28.6516 52.7093 29.0418 54.5581 29.3225C54.0746 30.1086 53.6483 30.927 53.4246 31.9752C53.2291 32.8908 53.1889 32.4866 53.2059 33.7351C53.219 34.704 53.0467 35.4824 52.9154 36.1923H36.9404V36.1922ZM32.3267 32.3544C32.3115 33.0176 32.4387 33.5903 32.7892 33.9257C33.8392 34.9304 34.3967 35.0434 34.775 36.1923H31.5198C31.5999 34.8768 31.8754 33.5935 32.3266 32.3545L32.3267 32.3544ZM36.2213 37.8078C36.3627 37.9885 36.4009 38.2664 36.2368 38.7945C35.9783 39.6264 38.286 38.094 38.286 39.0091C38.286 43.5064 35.3314 40.8404 36.1098 44.4182C36.2874 45.2348 35.9937 45.4966 36.3883 47.0293C36.4506 47.2715 36.6058 47.7228 36.8153 48.2714C33.6795 45.2729 31.7558 41.679 31.5199 37.8078H36.2214H36.2213ZM73.7929 28.1623C74.7323 27.894 75.6483 27.5961 76.5384 27.2702C77.1038 27.727 76.9114 28.4839 75.2098 28.8404C73.749 29.1466 74.1282 29.7528 71.2181 29.7528C68.8656 29.7528 68.1982 29.6145 67.8451 29.4091C69.9062 29.1244 71.896 28.704 73.7929 28.1623ZM86.8953 26.4401C89.61 29.2888 91.2627 32.6226 91.4802 36.1923H80.2827C81.1195 35.5791 82.4064 35.1345 82.9596 35.0416C83.6994 34.9174 84.889 32.9438 85.3079 35.928C86.2117 35.7011 87.757 34.4559 85.9623 33.563C85.2258 33.1967 85.9903 32.8667 85.9903 31.5275C85.9903 30.0423 85.1331 33.7301 84.6872 31.2591C84.6852 31.248 83.3672 28.525 84.6984 29.1052C85.5134 29.4604 84.4986 30.9908 86.0613 29.1921C86.394 28.8092 85.6533 28.5408 86.6334 27.7506C86.8287 27.593 86.9328 27.0769 86.8953 26.4401ZM78.371 36.1923H73.3011C73.5145 34.8274 73.3892 33.4714 72.4334 32.3214C71.0618 30.671 73.9059 31.3235 75.193 31.2425C77.953 31.0688 75.6671 35.4933 77.4235 35.6782C77.7557 36.3217 78.1234 35.8746 78.371 36.1923ZM72.9179 37.8078H78.6479C78.6566 38.0581 78.6612 38.3434 78.6612 38.6704C78.6612 39.7809 78.6586 40.3949 80.1177 40.0288C80.477 39.2354 81.024 39.2631 79.7998 37.9562C79.7534 37.9067 79.7136 37.8572 79.6789 37.8079H83.2937C83.156 38.0408 82.9893 38.3383 82.752 38.7242C81.8966 40.1153 82.2292 43.895 82.7184 45.3768C83.6088 48.0741 83.8387 46.5961 85.5809 45.61C85.9796 45.3842 88.0583 42.8894 86.1773 43.2024C86.0179 43.2289 85.0307 46.4023 85.1396 42.3734C85.169 41.2875 84.208 41.898 86.6671 40.4933C86.9715 40.3194 87.0512 38.8655 86.4492 37.8079H91.4802C91.1875 42.6106 88.2975 46.9868 83.7175 50.3284C80.8873 48.437 77.5246 46.9035 73.7929 45.8378C72.6981 45.5252 71.5723 45.2531 70.4198 45.024C70.7229 44.367 71.0825 43.5402 71.1583 43.1322C71.5067 41.2573 71.7593 41.1889 72.2539 39.7698C72.4696 39.1508 72.7124 38.4883 72.9179 37.808V37.8078ZM61.5 17.1467C63.1585 17.1467 64.785 17.2361 66.3698 17.4075C67.1319 17.7167 68.0181 18.2087 66.2056 18.6126C64.1951 19.0606 65.7406 19.2603 62.9187 19.2603C61.4515 19.2603 58.8268 18.9248 57.923 20.1985C57.6165 20.6304 57.1389 20.1734 56.4778 22.1415C56.1193 23.2085 54.3781 25.8079 57.7716 25.0024C59.1536 24.6744 60.5402 21.5279 61.9858 24.2326C62.6369 25.4509 64.1407 24.6239 65.9326 25.2781C66.7135 25.5633 69.671 24.6806 69.0363 26.9936C68.994 27.1478 68.4746 27.4438 68.703 27.6499C66.9825 27.9307 65.2026 28.113 63.377 28.1874C62.0317 27.8754 60.5135 27.3989 60.1535 26.8807C59.3701 25.7528 56.6198 25.886 55.6982 27.4969C55.6337 27.6096 55.5683 27.7201 55.5023 27.8291C53.4691 27.556 51.5121 27.1468 49.6535 26.616C46.3298 25.6668 43.313 24.3279 40.7307 22.6851C46.1279 19.2527 53.4383 17.1466 61.5 17.1466V17.1467ZM93.1374 37C93.1374 35.0378 92.7523 33.139 92.0303 31.3358C94.1426 34.3486 95.3273 37.7167 95.3273 41.2607C95.3273 47.5176 91.6343 53.2268 85.6636 57.3992C79.9042 61.4239 72.0614 64.0126 63.3292 64.3314V58.4336C71.2767 58.1265 78.4454 55.8312 83.7498 52.2754C89.5499 48.3873 93.1374 42.9882 93.1374 37ZM29.8626 37C29.8626 38.9621 30.2477 40.861 30.9697 42.6641C28.8574 39.6513 27.6726 36.2832 27.6726 32.7393C27.6726 26.4823 31.3656 20.7731 37.3364 16.6007C43.0942 12.5772 50.9343 9.98885 59.6636 9.66885V15.5666C51.719 15.8748 44.5529 18.1698 39.2501 21.7246C33.45 25.6127 29.8625 31.0117 29.8625 37H29.8626Z" fill="#000747"/>
</svg>
