<svg width="123" height="74" viewBox="0 0 123 74" fill="none" xmlns="http://www.w3.org/2000/svg">
<path d="M53.4502 28.074C53.6582 28.0281 54.0671 27.899 54.3977 27.5558C54.8281 27.109 55.1249 27.0829 55.3893 27.3345C55.5711 27.5076 55.5766 27.7237 55.5835 27.9964C55.5871 28.1389 55.5914 28.3109 55.6273 28.4415C55.7377 28.8439 56.0298 29.1575 56.5903 29.7593C56.8108 29.9961 56.5568 29.7204 56.7983 29.9811C57.0258 30.2267 57.0848 30.233 57.1776 30.2429C57.4578 30.2726 57.8573 30.3151 58.851 31.0195C59.8931 31.7583 61.0569 30.8089 61.8417 30.1687C62.0806 29.9738 62.2903 29.8028 62.4806 29.6857C62.9674 29.3862 63.47 29.2671 64.0351 29.2842C64.5656 29.3002 65.1362 29.4359 65.7968 29.6524C66.2854 29.8127 66.4515 29.8266 66.546 29.8345C66.8323 29.8585 66.8334 29.8587 67.3663 30.2788C67.5793 30.4467 67.8526 30.5744 68.1118 30.6957C68.8214 31.0274 69.4558 31.324 69.391 32.2258C69.3544 32.7343 69.1596 33.2107 68.9829 33.6429C68.8377 33.9978 68.7083 34.3143 68.7385 34.4544C68.8014 34.7461 68.752 35.0571 68.6962 35.4084C68.6304 35.823 68.553 36.3099 68.7096 36.752C68.8288 37.0885 69.1146 37.309 69.3425 37.4849C69.766 37.8116 70.0852 38.0579 69.8609 38.6079C69.8014 38.7539 69.7078 38.8991 69.6032 39.0616C69.3687 39.4256 69.0514 39.9181 69.3791 40.3566C69.6587 40.7308 70.2187 41.0727 70.7227 41.3804C71.3504 41.7636 71.9075 42.1038 72.0396 42.5782C72.2222 43.2346 71.8272 43.4841 71.3499 43.7855C71.136 43.9206 70.8923 44.0745 70.7775 44.2837C70.698 44.4286 70.7607 44.5809 70.8093 44.699C70.8438 44.7826 70.8751 44.8589 70.8937 44.9367C70.9915 45.3462 70.904 45.6343 70.2518 45.7881C70.1085 45.8219 70.0784 45.8294 70.0488 45.8368C69.3105 46.0198 68.6628 46.1804 67.2667 45.6407C67.0258 45.5476 66.8042 45.4674 66.6101 45.3974C65.6313 45.0435 65.2763 44.9151 64.8046 44.0534C64.7128 43.8856 64.639 43.7375 64.5684 43.5958C64.423 43.3041 64.2926 43.0426 64.1824 42.9371C64.1684 42.9237 64.1858 42.9784 64.1284 43.0377C63.9581 43.2135 63.8495 43.3944 63.7562 43.55C63.4194 44.1116 63.2065 44.4664 62.0874 44.2708C61.8667 44.2323 61.7963 44.2207 61.7322 44.2101C60.7388 44.0463 60.5064 44.008 59.7921 43.1372C59.4684 42.7427 59.4065 42.7378 59.3205 42.7311C59.1774 42.7198 59.0133 42.7069 58.7518 42.5831C58.3717 42.4032 58.1341 42.1112 57.9857 41.7941C57.8527 41.5099 57.7976 41.2075 57.7743 40.9608C57.764 40.8517 57.7687 40.7528 57.7736 40.6482C57.7848 40.4119 57.7985 40.1186 57.2601 39.9593C57.1306 39.921 57.0213 39.8902 56.9077 39.8582C55.6519 39.5047 54.0026 39.0405 54.3353 37.668C54.5083 36.9542 54.3628 36.8072 54.0045 36.4453C53.9486 36.3889 53.8891 36.3288 53.8314 36.269C53.7403 36.1746 53.6318 36.07 53.5172 35.9595C52.7526 35.222 51.771 34.2753 52.5575 33.3916C52.6046 33.3387 52.6371 33.3021 52.6589 33.2775L52.6584 33.277C52.6362 33.3016 52.6198 33.32 52.6583 33.2769C53.0432 32.8468 53.2752 32.5876 53.1175 32.3628C53.0216 32.2261 52.8723 32.0875 52.7137 31.9404C52.3044 31.5605 51.8454 31.1346 51.621 30.2728C51.4513 29.6207 51.4917 29.3195 51.5253 29.0693C51.5429 28.938 51.5572 28.8314 51.4698 28.6078C51.3516 28.3057 51.2991 28.0473 51.3169 27.8514C51.3337 27.6654 51.405 27.515 51.5329 27.4051C51.6696 27.2875 51.8388 27.2388 52.0405 27.2661C52.2228 27.2907 52.4468 27.3906 52.7111 27.5776C53.0899 27.8455 53.3232 27.9959 53.4504 28.074L53.4502 28.074ZM54.7085 28.4805C54.0815 28.9312 53.4097 28.9969 53.4074 28.9972L53.2687 29.0118L53.1473 28.9476C53.1466 28.9472 52.933 28.8355 52.3775 28.4502C52.4814 28.7786 52.4565 28.9646 52.4267 29.1863C52.4036 29.3582 52.3758 29.5652 52.5011 30.0461C52.6588 30.6518 53.0156 30.9829 53.3337 31.2782C53.5259 31.4566 53.7069 31.6246 53.8623 31.8459C54.4321 32.6577 54.0209 33.1171 53.3389 33.8792C53.1665 34.0717 53.4781 33.7205 53.2381 33.9903C53.0272 34.2271 53.6592 34.8366 54.1515 35.3114C54.2726 35.4281 54.3872 35.5387 54.4871 35.6422C54.5491 35.7065 54.6027 35.7606 54.653 35.8114C55.2624 36.4268 55.51 36.6768 55.219 37.877C55.0907 38.4063 56.2618 38.7359 57.1535 38.9869C57.291 39.0256 57.4235 39.0629 57.5202 39.0915C58.7403 39.4525 58.7082 40.1363 58.6823 40.6872C58.6787 40.7635 58.6753 40.8355 58.6795 40.8793C58.6948 41.042 58.7298 41.2387 58.8125 41.4151C58.8796 41.5586 58.9832 41.6889 59.1438 41.7649C59.2539 41.817 59.3276 41.8228 59.3918 41.8279C59.7021 41.8523 59.9258 41.8699 60.4977 42.567C60.9937 43.1717 61.1614 43.1994 61.8783 43.3175C62.0319 43.3428 62.2004 43.3706 62.2443 43.3783C62.7478 43.4663 62.8361 43.319 62.9759 43.086C63.0941 42.8889 63.2317 42.6596 63.4728 42.4107C64.0035 41.8629 64.4221 41.911 64.8131 42.2853C65.038 42.5006 65.2017 42.8291 65.3844 43.1956C65.4568 43.3409 65.5325 43.4928 65.6028 43.6213C65.9097 44.182 66.1786 44.2792 66.9202 44.5473C67.1104 44.6161 67.3279 44.6947 67.5945 44.7978C68.7218 45.2335 69.2404 45.1049 69.8314 44.9584L69.925 44.9352C69.8175 44.6593 69.7267 44.3119 69.9793 43.8517C70.2093 43.4325 70.5567 43.2132 70.8617 43.0205C71.028 42.9155 71.1656 42.8285 71.163 42.8191C71.1266 42.6885 70.7139 42.4364 70.2488 42.1525C69.6735 41.8012 69.0343 41.411 68.6487 40.895C67.9464 39.9553 68.4585 39.1604 68.8371 38.5727C68.9162 38.4499 68.987 38.3401 69.0164 38.2678C69.0505 38.1843 68.8982 38.2865 68.7866 38.2003C68.4634 37.9509 68.0581 37.6383 67.8508 37.053C67.619 36.3986 67.7158 35.789 67.7982 35.2702C67.8398 35.0083 67.8766 34.7765 67.8476 34.642C67.7589 34.2305 67.9378 33.7932 68.1384 33.3028C68.2895 32.9332 68.4562 32.5256 68.4824 32.162C68.5029 31.8765 68.1366 31.7053 67.727 31.5138C67.417 31.3688 67.0902 31.216 66.7998 30.9871C66.4848 30.7388 66.4848 30.7388 66.4712 30.7377C66.3374 30.7264 66.1023 30.7067 65.5117 30.5131C64.9237 30.3203 64.4322 30.2 64.0102 30.1873C63.6228 30.1755 63.2823 30.2548 62.9581 30.4543C62.8204 30.5389 62.6328 30.692 62.419 30.8664C61.4171 31.6837 59.9312 32.8958 58.3236 31.7562C57.5242 31.1896 57.2639 31.1619 57.0814 31.1425C56.7799 31.1104 56.5879 31.09 56.1283 30.5939C55.7425 30.1772 56.0137 30.4684 55.9239 30.372C55.2634 29.6629 54.9193 29.2935 54.7506 28.6788C54.7323 28.612 54.7186 28.5456 54.7084 28.4805H54.7085ZM52.6589 33.2775C52.7283 33.1992 52.6881 33.2439 52.6583 33.2771L52.6589 33.2775Z" fill="black"/>
<path d="M81.6054 30.3471L83.6759 29.1589L82.8263 31.774L81.9767 34.3891L79.2735 33.8129L76.5703 33.2366L79.0953 31.7876" stroke="#373535" stroke-width="0.00637371" stroke-miterlimit="22.9256"/>
<path fill-rule="evenodd" clip-rule="evenodd" d="M23.9942 36.5978H40.7008C44.5376 27.6046 52.2769 21.4583 61.1994 21.4583C68.4207 21.4583 74.8671 25.4843 79.0967 31.7872L76.5717 33.2362L79.275 33.8124L80.4762 34.0685L81.9782 34.3887L82.6281 32.3881L82.8277 31.7736L83.6773 29.1585L81.6068 30.3467C76.2561 20.5471 65.9327 13.9093 54.0755 13.9093C40.8744 13.9093 29.5746 22.1369 24.9215 33.7955C24.5545 34.715 24.2152 35.633 23.9941 36.5979L23.9942 36.5978Z" fill="#DA0700"/>
<path fill-rule="evenodd" clip-rule="evenodd" d="M98.724 36.5979H82.0175C78.1807 45.5912 70.4414 51.7375 61.5189 51.7375C54.2976 51.7375 47.8512 47.7115 43.6216 41.4086L46.1466 39.9595L43.4433 39.3833L42.2421 39.1273L40.7401 38.8071L40.0902 40.8077L39.8906 41.4221L39.041 44.0372L41.1115 42.849C46.4621 52.6486 56.7856 59.2864 68.6428 59.2864C81.8439 59.2864 93.1437 51.0589 97.7968 39.4002C98.1637 38.4807 98.5031 37.5627 98.7242 36.5978L98.724 36.5979Z" fill="#0052BF"/>
</svg>
