<svg width="123" height="74" viewBox="0 0 123 74" fill="none" xmlns="http://www.w3.org/2000/svg">
<path fill-rule="evenodd" clip-rule="evenodd" d="M77.4757 14.7866V11.9104C79.685 11.9104 80.9977 13.3299 80.9977 15.5921V19.6187C77.4741 18.2923 73.9973 17.62 70.2407 17.62C63.6382 17.62 57.649 19.6847 52.2833 23.6164C51.1239 23.0074 49.9645 22.3984 48.8052 21.7893C55.2189 16.7333 62.088 13.9903 70.2407 13.9903C72.6623 13.9903 75.1097 14.2543 77.4757 14.7866ZM25.5106 47.1528L40.6758 62.782C40.154 63.3198 39.6321 63.8576 39.1103 64.3954L42.5554 67.9459C40.8954 67.9459 39.2352 67.9459 37.5751 67.9459C36.8277 67.1756 36.5773 66.9176 35.8299 66.1474C36.3518 65.6096 36.8736 65.0718 37.3954 64.534C32.4293 59.4159 26.9662 53.7856 22 48.6675C22 39.3872 22.0024 30.107 22.0023 20.8267C23.1717 20.8267 24.3411 20.8267 25.5106 20.8267C25.5107 29.6021 25.5106 38.3774 25.5106 47.1527V47.1528ZM46.5901 56.6869C46.0683 57.2247 45.5464 57.7625 45.0246 58.3003C48.1443 61.5156 51.2641 64.7308 54.3839 67.946C52.7238 67.946 51.0637 67.946 49.4035 67.946C46.6847 65.144 44.4629 62.8543 41.7442 60.0523C42.2661 59.5145 42.7879 58.9767 43.3097 58.4389C41.3723 56.4423 38.938 53.9335 37.0007 51.9369C37.0007 50.226 37.0007 48.5151 37.0007 46.8042C40.1972 50.0984 43.3936 53.3927 46.59 56.6869H46.5901ZM52.5043 50.5917C51.9825 51.1296 51.4606 51.6674 50.9388 52.2052C56.0474 57.4701 61.1561 62.735 66.2647 68C64.5855 67.9802 62.9062 67.9605 61.2269 67.9407C56.5384 63.1088 52.3468 58.7892 47.6584 53.9572C48.1803 53.4193 48.7021 52.8815 49.2239 52.3437C47.2866 50.3471 44.8522 47.8384 42.9149 45.8417C42.9149 44.1308 42.9149 42.4199 42.9149 40.709C46.1113 44.0033 49.3078 47.2975 52.5043 50.5917H52.5043ZM56.853 46.1101L71.3423 61.0426L84.4834 67.946C81.9002 67.946 79.3169 67.946 76.7337 67.946C74.2363 66.6339 71.7388 65.3219 69.2413 64.01C63.8532 58.4561 58.9611 53.4156 53.5726 47.8621L55.1382 46.2487C53.2008 44.2521 50.7665 41.7433 48.8292 39.7467C48.8292 38.0358 48.8292 36.3249 48.8292 34.614C52.0257 37.9082 55.2221 41.2025 58.4186 44.4967C57.8968 45.0344 57.3749 45.5723 56.853 46.1101H56.853ZM86.2698 45.8494C86.2701 48.5761 86.2706 51.3029 86.2706 54.0296C83.8871 54.0296 82.7486 53.1204 82.7486 50.6389V46.7919L78.4732 39.1601C77.2681 38.9988 76.0893 38.5589 75.0664 37.8815L67.8817 45.2859L77.2564 54.9474C85.5043 59.2803 93.7522 63.6131 102 67.946C99.4168 67.946 96.8335 67.946 94.2503 67.946C87.9697 64.6462 81.6887 61.347 75.408 58.0475L75.2396 57.959L75.1835 57.9296L75.1553 57.9148L75.1338 57.8926L75.0905 57.848L74.9607 57.7143C69.637 52.2277 64.8103 47.2535 59.4867 41.7668C60.0086 41.2291 60.5304 40.6912 61.0523 40.1534L55.1099 34.0292C49.0735 30.858 43.037 27.6871 37.0007 24.5159C37.0007 23.1588 37.0007 21.8018 37.0007 20.4447C43.7374 23.9838 50.474 27.523 57.2109 31.0617C59.5848 33.5082 61.9587 35.9548 64.3327 38.4014C63.8108 38.9392 63.2889 39.477 62.7671 40.0148L65.3915 42.7194L72.5747 35.3164C71.6782 33.8742 71.222 32.1552 71.2756 30.4433C71.3308 28.6788 71.82 27.471 72.6691 25.9555C73.6826 26.5557 74.696 27.1559 75.7096 27.7562C75.1622 28.7332 74.8216 29.4237 74.7851 30.5639C74.6952 33.3727 76.8979 35.6017 79.5211 35.6017H80.1931H80.5304C82.4439 39.0173 84.3565 42.4335 86.2698 45.8491V45.8494ZM90.187 34.2305V39.4313L86.0233 34.2305H90.187ZM44.7275 19.6471C43.6122 19.0612 42.4969 18.4753 41.3816 17.8894C49.5088 10.2261 59.1454 6 70.2407 6C81.5581 6 92.3889 10.7049 100.308 19.1367C100.711 19.5654 101.114 19.994 101.516 20.4227C99.4534 22.5489 97.3904 24.6749 95.3274 26.801V50.2463C95.3274 52.9118 94.6279 54.0296 91.8054 54.0296C91.8054 44.9481 91.8054 35.8666 91.8054 26.785C89.4242 24.3447 86.7424 22.3832 83.7371 20.8427V16.8538C87.4102 18.5271 90.6213 20.6596 93.5552 23.4947L96.5552 20.403C89.4007 13.4395 80.0626 9.62973 70.2407 9.62973C60.6238 9.62973 51.9443 13.1454 44.7275 19.6471Z" fill="#2E6900"/>
</svg>
