<svg width="124" height="75" viewBox="0 0 124 75" fill="none" xmlns="http://www.w3.org/2000/svg">
<path fill-rule="evenodd" clip-rule="evenodd" d="M11.4209 37.9247L83.0756 30.1393C85.4576 25.7464 89.7925 22.453 94.9993 21.2797L11.4209 37.9247ZM81.5999 33.8971L11.4209 37.9247L81.5999 41.9522C81.2698 40.6607 81.0949 39.312 81.0949 37.9247C81.0949 36.5374 81.2698 35.1887 81.5999 33.8971ZM83.0756 45.7101L11.4209 37.9247L95.4126 54.6579C90.0222 53.569 85.5204 50.2188 83.0756 45.7101ZM92.7288 40.3071L88.1548 45.1369L94.646 42.8837L92.974 49.1666L97.6123 44.3243L99.2253 50.6209L100.948 44.2988L105.477 49.1666L103.889 42.8131L110.296 45.137L105.762 40.2075L112.579 39.4551L106.137 37.0789L111.803 33.4226L104.929 34.1441L108.145 28.4215L102.414 32.0754L102.445 25.5975L99.1689 31.3468L96.0062 25.5975L95.9366 32.125L90.3054 28.4215L93.4576 34.232L86.648 33.4226L92.3001 37.1848L85.872 39.4551L92.729 40.3072L92.7288 40.3071ZM99.2252 42.3371C96.6433 42.3371 94.5503 40.3616 94.5503 37.9247C94.5503 35.4878 96.6433 33.5123 99.2252 33.5123C101.807 33.5123 103.9 35.4878 103.9 37.9247C103.9 40.3616 101.807 42.3371 99.2252 42.3371ZM100.054 38.5332H98.4103L98.0298 39.7902C97.9641 40.032 97.9321 40.1867 97.9321 40.2498C97.9321 40.3609 97.9725 40.4372 98.0533 40.4807C98.1325 40.5221 98.2772 40.5504 98.4844 40.5635L98.4692 40.7923C98.348 40.7923 98.2116 40.79 98.0601 40.7857C97.9085 40.7813 97.7587 40.7792 97.6105 40.7792C97.4893 40.7792 97.363 40.7813 97.2333 40.7857C97.1037 40.79 96.9774 40.7923 96.8562 40.7923L96.8461 40.5744C96.9741 40.5635 97.0801 40.5418 97.1626 40.5156C97.2451 40.4873 97.3158 40.435 97.3765 40.3609C97.4371 40.2869 97.496 40.1845 97.5499 40.056C97.6038 39.9253 97.6678 39.7509 97.7402 39.5353L99.1545 35.2133C99.1949 35.0869 99.2286 34.9758 99.2556 34.88C99.2842 34.7841 99.3145 34.6795 99.3482 34.5706L99.658 34.5184C99.695 34.7232 99.7337 34.9105 99.7742 35.0804C99.8146 35.2503 99.8533 35.405 99.8904 35.5466L101 39.7074C101.049 39.8947 101.094 40.0407 101.133 40.1474C101.173 40.2542 101.219 40.3369 101.271 40.3936C101.323 40.4502 101.391 40.4894 101.471 40.5112C101.552 40.533 101.657 40.5504 101.785 40.5635L101.769 40.7922C101.631 40.7922 101.48 40.79 101.313 40.7856C101.146 40.7813 100.98 40.7791 100.813 40.7791C100.675 40.7791 100.535 40.7813 100.394 40.7856C100.252 40.79 100.113 40.7922 99.9745 40.7922L99.9594 40.5744C100.143 40.5591 100.274 40.5286 100.353 40.4894C100.432 40.448 100.473 40.3739 100.473 40.2628C100.473 40.2149 100.466 40.1604 100.453 40.0994C100.439 40.0384 100.422 39.9687 100.404 39.8925L100.054 38.5332L100.054 38.5332ZM98.5231 38.1629H99.9594L99.2977 35.6359L98.5231 38.1629ZM93.2797 26.0876H92.3128L92.1286 26.8586H91.5405L92.5395 23.1157H93.0501L94.0537 26.8586H93.4668L93.2797 26.0876H93.2797ZM92.4619 25.4631H93.131L92.7947 24.0611L92.4619 25.4631ZM97.1452 23.2086C97.1452 23.0629 97.1085 22.9513 97.035 22.8732C96.9616 22.7959 96.8287 22.7128 96.6375 22.6257C96.4458 22.5386 96.2942 22.4539 96.183 22.37C95.8787 22.1404 95.7266 21.831 95.7266 21.4418C95.7266 21.2391 95.7674 21.0591 95.849 20.9004C95.9306 20.7416 96.0477 20.6179 96.2004 20.5283C96.3526 20.4396 96.5245 20.3948 96.7151 20.3948C96.9062 20.3948 97.077 20.4428 97.2262 20.5405C97.376 20.6374 97.4926 20.7742 97.5753 20.9501C97.6587 21.1268 97.7001 21.3271 97.7001 21.5526H97.1481C97.1481 21.3808 97.1096 21.2481 97.0322 21.1528C96.9546 21.0584 96.8456 21.0103 96.7057 21.0103C96.5711 21.0103 96.4662 21.0503 96.391 21.13C96.3159 21.209 96.2785 21.314 96.2785 21.4443C96.2785 21.5656 96.3222 21.6674 96.4102 21.7496C96.4977 21.8318 96.6271 21.9092 96.7984 21.9816C97.112 22.1127 97.3404 22.2764 97.4844 22.4718C97.6284 22.6672 97.7001 22.9106 97.7001 23.2029C97.7001 23.527 97.6121 23.781 97.436 23.9651C97.2606 24.1491 97.0246 24.2411 96.7285 24.2411C96.5216 24.2411 96.3339 24.1882 96.1643 24.0831C95.9953 23.9773 95.8665 23.8332 95.7773 23.6499C95.6888 23.4668 95.6444 23.2543 95.6444 23.0133H96.1981C96.1981 23.4261 96.3747 23.632 96.7285 23.632C96.859 23.632 96.9616 23.5946 97.035 23.5205C97.1085 23.4456 97.1452 23.3422 97.1452 23.2087V23.2086ZM101.881 24.1906H101.328V20.4476H101.881V24.1906ZM106.136 26.0876H105.169L104.985 26.8586H104.397L105.396 23.1157H105.906L106.91 26.8586H106.323L106.136 26.0876ZM105.318 25.4631H105.987L105.651 24.0611L105.318 25.4631Z" fill="#5F1600"/>
</svg>
