<svg width="123" height="74" viewBox="0 0 123 74" fill="none" xmlns="http://www.w3.org/2000/svg">
<path fill-rule="evenodd" clip-rule="evenodd" d="M84.5271 30.2937L81.8701 31.3013C81.5069 31.439 81.1206 31.5766 80.7161 31.7112L75.898 33.5383C73.5913 34.4129 71.4504 33.8002 70.0212 32.4104C71.1361 31.7835 72.0445 31.0098 72.9482 30.0599C76.5872 26.2355 78.2862 20.7805 77.1144 15.5226C76.9942 14.9833 76.8649 14.5038 76.7271 14.0828C75.5694 10.546 73.1972 7.74161 70.1707 5.99491C67.1079 4.22729 63.4246 3.56696 59.6876 4.34299C59.1674 4.45096 58.6951 4.56919 58.2739 4.69766C54.2496 5.9249 50.988 8.67493 48.9678 12.1289C46.9769 15.5328 46.1915 19.6393 47.0835 23.6417C47.2037 24.1809 47.3331 24.6605 47.4709 25.0815C48.0211 26.7626 48.846 28.2781 49.8848 29.5932L38.2484 34.0059C36.515 34.6632 35.0028 33.3372 35.0028 31.7085V26.4958L20.3047 46.2807L31.0824 52.3402C31.382 52.5086 31.5326 52.816 31.5326 53.1687C31.5326 53.9054 31.0585 54.7296 30.262 55.0315L20.3047 58.8075V69.7484L55.2606 56.4929C56.992 55.8397 58.5017 57.1647 58.5017 58.7919V65.5729C58.5017 67.201 60.0129 68.5266 61.7455 67.8709L64.5449 66.8093L86.0131 58.6684C87.7465 58.0111 89.2588 59.3371 89.2588 60.9657V66.1784L103.957 46.3935L93.1801 40.3346C92.8795 40.1656 92.729 39.8583 92.729 39.5056C92.729 38.769 93.203 37.9449 93.9995 37.6428L103.957 33.8669V22.926L84.5272 30.2939L84.5271 30.2937ZM65.7598 40.0737V48.3513L86.0129 40.6711C87.7463 40.0137 89.2586 41.3398 89.2586 42.9684C89.2586 44.8503 88.0477 46.9557 86.0129 47.7274L66.6196 55.0815C62.5268 56.6336 58.9558 53.5026 58.9558 49.6571V44.1504L38.198 52.023C36.5149 52.6624 35.0026 51.3364 35.0026 49.7078C35.0026 47.8259 36.2135 45.7205 38.2482 44.9489C46.1761 41.9469 54.7202 38.7157 62.514 35.7518C64.2474 35.0945 65.7597 36.4205 65.7597 38.0491V40.0737H65.7598ZM59.456 24.409C58.6156 23.924 57.9392 23.0913 57.5824 22.0013C57.5166 21.8 57.4699 21.6393 57.4437 21.5215C57.1044 19.9986 57.4059 18.4315 58.1676 17.129C58.9002 15.8765 60.0571 14.8872 61.4648 14.4578C61.6551 14.3998 61.7943 14.3618 61.884 14.3432C62.9355 14.1249 63.9377 14.291 64.742 14.7551C65.5824 15.2402 66.2588 16.0729 66.6155 17.1629C66.6814 17.3642 66.728 17.5249 66.7542 17.6426C67.0936 19.1655 66.7921 20.7326 66.0303 22.0352C65.2977 23.2876 64.1409 24.2769 62.7332 24.7063C62.5428 24.7644 62.4036 24.8024 62.3141 24.8209C61.2626 25.0393 60.2603 24.8731 59.4561 24.409H59.456Z" fill="#EB0100"/>
</svg>
